<svg width="14" height="14" viewBox="0 0 14 14" fill="none" xmlns="http://www.w3.org/2000/svg">
<path d="M4.09745 9.90257C4.2683 10.0734 4.2683 10.3505 4.09745 10.5213C3.92659 10.6922 3.64958 10.6922 3.47873 10.5213L4.09745 9.90257ZM10.5212 3.47885C10.6921 3.6497 10.6921 3.92671 10.5212 4.09757C10.3503 4.26842 10.0733 4.26842 9.90245 4.09757L10.5212 3.47885ZM2.59856 10.545L3.45507 11.4014L2.83635 12.0202L1.97985 11.1637L2.59856 10.545ZM11.4013 3.45519L10.5449 2.59869L11.1636 1.97997L12.0201 2.83647L11.4013 3.45519ZM11.4013 4.54947C11.612 4.33885 11.7381 4.21134 11.8171 4.10787C11.8535 4.06025 11.8685 4.03173 11.8747 4.01682C11.8795 4.0054 11.8788 4.00279 11.8788 4.00233H12.7538C12.7538 4.26188 12.6434 4.46741 12.5128 4.63863C12.3898 4.79974 12.2132 4.97506 12.0201 5.16819L11.4013 4.54947ZM12.0201 2.83647C12.2132 3.02961 12.3898 3.20492 12.5128 3.36604C12.6434 3.53725 12.7538 3.74278 12.7538 4.00233H11.8788C11.8788 4.00187 11.8795 3.99926 11.8747 3.98784C11.8685 3.97293 11.8535 3.94441 11.8171 3.8968C11.7381 3.79332 11.612 3.66581 11.4013 3.45519L12.0201 2.83647ZM3.45507 11.4014C3.66569 11.6121 3.7932 11.7383 3.89667 11.8172C3.94429 11.8536 3.97281 11.8686 3.98771 11.8748C3.99914 11.8796 4.00174 11.879 4.00221 11.879V12.754C3.74266 12.754 3.53713 12.6435 3.36592 12.5129C3.2048 12.39 3.02948 12.2133 2.83635 12.0202L3.45507 11.4014ZM5.16807 12.0202C4.97494 12.2133 4.79962 12.39 4.6385 12.5129C4.46729 12.6435 4.26176 12.754 4.00221 12.754V11.879C4.00267 11.879 4.00528 11.8796 4.0167 11.8748C4.03161 11.8686 4.06012 11.8536 4.10774 11.8172C4.21122 11.7383 4.33872 11.6121 4.54935 11.4014L5.16807 12.0202ZM2.59856 9.45067C2.38794 9.66131 2.26175 9.78882 2.1828 9.89231C2.14647 9.93991 2.13144 9.96843 2.12522 9.98337C2.12045 9.99474 2.12107 9.99737 2.12107 9.99783H1.24607C1.24607 9.73831 1.35653 9.53274 1.48716 9.36153C1.61009 9.20042 1.78672 9.02512 1.97985 8.83198L2.59856 9.45067ZM1.97985 11.1637C1.78672 10.9705 1.61009 10.7952 1.48716 10.6341C1.35653 10.4629 1.24607 10.2574 1.24607 9.99783H2.12107C2.12107 9.9983 2.12045 10.0009 2.12522 10.0123C2.13144 10.0272 2.14647 10.0558 2.1828 10.1034C2.26175 10.2068 2.38794 10.3344 2.59856 10.545L1.97985 11.1637ZM8.83186 1.97997C9.025 1.78684 9.20029 1.61021 9.36141 1.48728C9.53262 1.35665 9.73819 1.24619 9.99771 1.24619V2.12119C9.99724 2.12119 9.99462 2.12058 9.98324 2.12534C9.96831 2.13156 9.93979 2.14659 9.89219 2.18292C9.7887 2.26188 9.66119 2.38806 9.45054 2.59869L8.83186 1.97997ZM10.5449 2.59869C10.3342 2.38806 10.2067 2.26188 10.1032 2.18292C10.0556 2.14659 10.0271 2.13156 10.0122 2.12534C10.0008 2.12058 9.99818 2.12119 9.99771 2.12119V1.24619C10.2572 1.24619 10.4628 1.35665 10.634 1.48728C10.7951 1.61021 10.9704 1.78684 11.1636 1.97997L10.5449 2.59869ZM5.59632 11.4014L6.02457 11.8297L5.40585 12.4484L4.9776 12.0202L5.59632 11.4014ZM7.54713 11.8297C7.75293 11.6239 7.88628 11.4899 7.97862 11.3792C8.06699 11.2732 8.08899 11.2213 8.09727 11.1903L8.9424 11.4168C8.88769 11.621 8.77808 11.7867 8.65062 11.9396C8.52707 12.0878 8.36024 12.254 8.16581 12.4484L7.54713 11.8297ZM8.16581 9.68849C8.36024 9.88292 8.52707 10.0491 8.65062 10.1973C8.77808 10.3502 8.88769 10.5159 8.9424 10.7201L8.09727 10.9466C8.08899 10.9156 8.06699 10.8637 7.97862 10.7577C7.88628 10.647 7.75293 10.513 7.54713 10.3072L8.16581 9.68849ZM8.09727 11.1903C8.11862 11.1105 8.11862 11.0264 8.09727 10.9466L8.9424 10.7201C9.00359 10.9483 9.00359 11.1886 8.9424 11.4168L8.09727 11.1903ZM8.16581 12.4484C7.97139 12.6429 7.80519 12.8097 7.65697 12.9333C7.50414 13.0607 7.33841 13.1703 7.13419 13.2251L6.90774 12.3799C6.93865 12.3716 6.99057 12.3497 7.09662 12.2612C7.20734 12.1689 7.34127 12.0355 7.54713 11.8297L8.16581 12.4484ZM6.02457 11.8297C6.23037 12.0355 6.36436 12.1689 6.47508 12.2612C6.58113 12.3497 6.63304 12.3716 6.66396 12.3799L6.43745 13.2251C6.23329 13.1703 6.06756 13.0607 5.91473 12.9333C5.76649 12.8097 5.60028 12.6429 5.40585 12.4484L6.02457 11.8297ZM7.13419 13.2251C6.90599 13.2862 6.66571 13.2862 6.43745 13.2251L6.66396 12.3799C6.74382 12.4013 6.82788 12.4013 6.90774 12.3799L7.13419 13.2251ZM2.17032 6.45292C1.9645 6.65877 1.83111 6.79271 1.73882 6.90342C1.6504 7.00947 1.62846 7.06139 1.62017 7.09231L0.774989 6.86586C0.829706 6.66163 0.939332 6.49591 1.06678 6.34307C1.19036 6.19485 1.35717 6.02866 1.5516 5.83423L2.17032 6.45292ZM1.5516 8.59422C1.35717 8.39973 1.19036 8.23354 1.06678 8.08532C0.939332 7.93248 0.829706 7.76676 0.774989 7.56259L1.62017 7.33608C1.62846 7.367 1.6504 7.41892 1.73882 7.52497C1.83111 7.63568 1.9645 7.76967 2.17032 7.97547L1.5516 8.59422ZM1.62017 7.09231C1.59878 7.17217 1.59878 7.25622 1.62017 7.33608L0.774989 7.56259C0.713838 7.33433 0.713838 7.09406 0.774989 6.86586L1.62017 7.09231ZM1.5516 5.83423C1.74603 5.63979 1.91224 5.47299 2.06046 5.34941C2.21331 5.22195 2.37902 5.11233 2.58322 5.05761L2.80969 5.90277C2.77877 5.91106 2.72685 5.93305 2.6208 6.02142C2.51011 6.11377 2.37613 6.24712 2.17032 6.45292L1.5516 5.83423ZM3.69285 6.45292C3.48703 6.24712 3.35305 6.11377 3.24237 6.02142C3.13632 5.93305 3.08439 5.91106 3.05348 5.90277L3.27994 5.05761C3.48415 5.11233 3.64985 5.22195 3.80271 5.34941C3.95092 5.47299 4.11714 5.63979 4.31157 5.83423L3.69285 6.45292ZM2.58322 5.05761C2.81144 4.99646 3.05173 4.99647 3.27994 5.05761L3.05348 5.90277C2.97362 5.88142 2.88954 5.88142 2.80969 5.90277L2.58322 5.05761ZM12.0201 4.97772L12.4483 5.40597L11.8296 6.02469L11.4013 5.59644L12.0201 4.97772ZM12.4483 8.16593C12.2539 8.36036 12.0877 8.52719 11.9395 8.65074C11.7866 8.7782 11.6209 8.88781 11.4167 8.94252L11.1902 8.09739C11.2211 8.08911 11.2731 8.06712 11.3791 7.97874C11.4898 7.8864 11.6238 7.75305 11.8296 7.54725L12.4483 8.16593ZM10.3071 7.54725C10.5129 7.75305 10.6468 7.8864 10.7576 7.97874C10.8636 8.06712 10.9155 8.08911 10.9464 8.09739L10.72 8.94252C10.5158 8.88781 10.35 8.7782 10.1972 8.65074C10.049 8.52719 9.88279 8.36036 9.68837 8.16593L10.3071 7.54725ZM11.4167 8.94252C11.1885 9.00372 10.9482 9.00372 10.72 8.94252L10.9464 8.09739C11.0263 8.11874 11.1104 8.11874 11.1902 8.09739L11.4167 8.94252ZM11.8296 7.54725C12.0354 7.34139 12.1688 7.20746 12.2611 7.09674C12.3495 6.99069 12.3715 6.93877 12.3798 6.90786L13.2249 7.13431C13.1702 7.33853 13.0606 7.50426 12.9332 7.65709C12.8096 7.80532 12.6428 7.97151 12.4483 8.16593L11.8296 7.54725ZM12.4483 5.40597C12.6428 5.6004 12.8096 5.76661 12.9332 5.91485C13.0606 6.06768 13.1702 6.23341 13.2249 6.43757L12.3798 6.66408C12.3715 6.63317 12.3495 6.58125 12.2611 6.4752C12.1688 6.36448 12.0354 6.23049 11.8296 6.02469L12.4483 5.40597ZM12.3798 6.90786C12.4012 6.828 12.4012 6.74394 12.3798 6.66408L13.2249 6.43757C13.2861 6.66583 13.2861 6.90611 13.2249 7.13431L12.3798 6.90786ZM5.83411 1.55172C6.02854 1.35729 6.19473 1.19049 6.34295 1.06691C6.49579 0.939454 6.66151 0.829828 6.86574 0.775111L7.09219 1.6203C7.06127 1.62858 7.00935 1.65052 6.9033 1.73895C6.79259 1.83124 6.65865 1.96462 6.45279 2.17044L5.83411 1.55172ZM7.97535 2.17044C7.76955 1.96462 7.63556 1.83124 7.52484 1.73895C7.41879 1.65052 7.36688 1.62858 7.33596 1.6203L7.56247 0.775111C7.76664 0.829828 7.93236 0.939454 8.08519 1.06691C8.23342 1.19049 8.39961 1.35729 8.59409 1.55172L7.97535 2.17044ZM6.86574 0.775111C7.09394 0.71396 7.33421 0.71396 7.56247 0.775111L7.33596 1.6203C7.2561 1.5989 7.17204 1.5989 7.09219 1.6203L6.86574 0.775111ZM6.45279 2.17044C6.24699 2.37626 6.11364 2.51024 6.0213 2.62092C5.93293 2.72697 5.91094 2.7789 5.90265 2.80981L5.05749 2.58335C5.11221 2.37914 5.22183 2.21344 5.34928 2.06058C5.47286 1.91236 5.63967 1.74615 5.83411 1.55172L6.45279 2.17044ZM5.83411 4.31169C5.63967 4.11726 5.47286 3.95105 5.34928 3.80283C5.22183 3.64998 5.11221 3.48427 5.05749 3.28007L5.90265 3.0536C5.91094 3.08452 5.93293 3.13644 6.0213 3.24249C6.11364 3.35318 6.24699 3.48716 6.45279 3.69297L5.83411 4.31169ZM5.90265 2.80981C5.8813 2.88967 5.8813 2.97374 5.90265 3.0536L5.05749 3.28007C4.99634 3.05185 4.99634 2.81156 5.05749 2.58335L5.90265 2.80981ZM2.17032 7.97547L4.09745 9.90257L3.47873 10.5213L1.5516 8.59422L2.17032 7.97547ZM8.59409 1.55172L10.5212 3.47885L9.90245 4.09757L7.97535 2.17044L8.59409 1.55172ZM7.54713 10.3072L6.9047 9.66481L7.52344 9.04612L8.16581 9.68849L7.54713 10.3072ZM6.9047 9.04612L9.046 6.90482L9.66469 7.52357L7.52344 9.66481L6.9047 9.04612ZM9.68837 8.16593L9.046 7.52357L9.66469 6.90482L10.3071 7.54725L9.68837 8.16593ZM6.9047 9.66481L4.33522 7.09534L4.95394 6.4766L7.52344 9.04612L6.9047 9.66481ZM4.33522 7.09534L3.69285 6.45292L4.31157 5.83423L4.95394 6.4766L4.33522 7.09534ZM7.09522 4.95406L4.95394 7.09534L4.33522 6.4766L6.47648 4.33535L7.09522 4.95406ZM9.046 7.52357L6.47648 4.95406L7.09522 4.33535L9.66469 6.90482L9.046 7.52357ZM6.47648 4.95406L5.83411 4.31169L6.45279 3.69297L7.09522 4.33535L6.47648 4.95406ZM11.4013 5.59644C11.1122 5.30733 11.1122 4.83859 11.4013 4.54947L12.0201 5.16819C12.0727 5.11559 12.0727 5.03032 12.0201 4.97772L11.4013 5.59644ZM4.9776 12.0202C5.0302 12.0728 5.11547 12.0728 5.16807 12.0202L4.54935 11.4014C4.83846 11.1123 5.30721 11.1123 5.59632 11.4014L4.9776 12.0202Z" fill="white"/>
</svg>
